<svg xmlns="http://www.w3.org/2000/svg" viewBox="0 0 1256.89655 436.2069"><defs><style>.a{fill:#00061c;}.b{fill:none;}</style></defs><title>amazon_prime-video-logo-freelogovectors.net</title><path class="a" d="M652.46991,583.48993q-8.95157-.20744-17.903,0c-8.21751-.44677-16.435-.75-24.63661-1.34032a427.52087,427.52087,0,0,1-64.63915-9.82912c-73.28752-17.00948-137.62354-51.20393-193.758-100.908-5.21774-4.62734-10.14824-9.39832-15.22235-14.18522a10.86588,10.86588,0,0,1-2.84023-4.021,5.505,5.505,0,0,1,1.03715-5.96766,5.31348,5.31348,0,0,1,5.98364-1.3563,32.58677,32.58677,0,0,1,3.87738,1.94668,581.08229,581.08229,0,0,0,173.46152,71.66A631.96064,631.96064,0,0,0,580.06,530.65847a573.42286,573.42286,0,0,0,90.45657,4.037,479.32679,479.32679,0,0,0,48.52328-4.037,585.26206,585.26206,0,0,0,110.84873-25.243,522.4518,522.4518,0,0,0,55.52809-21.79638,12.62126,12.62126,0,0,1,8.96746-1.19673,9.28665,9.28665,0,0,1,6.71766,11.16945,10.85042,10.85042,0,0,1-.7499,1.94667,16.3389,16.3389,0,0,1-4.93056,5.66449,333.30108,333.30108,0,0,1-55.22491,35.104A437.79256,437.79256,0,0,1,723.31616,575.8628,512.1993,512.1993,0,0,1,652.46991,583.48993ZM431.39464,280.90961c3.73378-2.23388,7.61119-4.62733,11.64814-6.71761a66.72921,66.72921,0,0,1,33.87536-7.46756c8.52068.44677,16.2755,2.84022,22.24316,9.11106,5.68045,5.82406,7.77073,12.98849,8.36111,20.74326.15957,1.59563.15957,3.287.15957,5.07411v77.32447c0,6.71761-.90952,7.61116-7.62713,7.61116H481.84864a29.6141,29.6141,0,0,1-3.5742-.1436,4.11674,4.11674,0,0,1-3.59018-3.43061,26.93514,26.93514,0,0,1-.30318-4.9305V309.04067a24.93922,24.93922,0,0,0-.89355-8.21752,11.16942,11.16942,0,0,0-10.14822-8.20159,52.54406,52.54406,0,0,0-25.67376,4.91454,2.45728,2.45728,0,0,0-1.78711,2.69663v78.5212a20.83829,20.83829,0,0,1-.30317,4.32415,3.57421,3.57421,0,0,1-3.57068,3.57777q-.08159.00006-.1631-.00356c-2.23388.15957-4.48373.15957-6.86124.15957h-15.8287c-5.52091,0-6.71763-1.34032-6.71763-6.87718v-70.6706a33.63631,33.63631,0,0,0-.75-7.75477,11.16947,11.16947,0,0,0-10.45142-8.95149,52.305,52.305,0,0,0-26.12054,5.07411,2.3775,2.3775,0,0,0-1.59564,2.82426v79.57432c0,5.52089-1.18077,6.71761-6.71763,6.71761H336.8373c-5.23368,0-6.574-1.4999-6.574-6.574V276.58545a15.36629,15.36629,0,0,1,.44678-3.59018,4.37206,4.37206,0,0,1,4.18056-2.84023h18.66892a5.39325,5.39325,0,0,1,5.21774,4.18056c.75,2.09028,1.19672,4.03695,1.94667,6.27083,1.48393,0,2.37751-1.03715,3.43061-1.59563,8.20156-5.07411,16.86588-9.39832,26.56732-11.16945a56.24613,56.24613,0,0,1,22.33889,0,27.97157,27.97157,0,0,1,17.3286,11.6322,6.04852,6.04852,0,0,0,.89355,1.05312c-.15957.1436,0,.1436.14361.44678Z" transform="translate(-11.55172 -181.89655)"/><path class="a" d="M740.8362,355.31409c.90953-2.98383,1.80308-5.82406,2.69663-8.80789,6.86121-23.13671,13.7384-46.12982,20.59966-69.26653l.89355-2.68066a6.09532,6.09532,0,0,1,5.96766-4.34013h22.68993c5.68046,0,6.87719,1.59564,4.93051,7.02079l-8.95149,23.72708c-10.00461,25.97695-20.00928,52.09749-30.01389,78.07443-.28721.89355-.75,1.80307-1.03716,2.69662a7.27613,7.27613,0,0,1-7.46756,4.91454q-9.861-.22344-19.7061,0c-4.62734.15957-7.308-1.93071-8.9515-6.11126-3.73378-9.861-7.61116-19.84971-11.34494-29.71072-8.90372-23.50373-18.06265-46.92764-27.03011-70.51113a26.69555,26.69555,0,0,1-1.93071-5.80814c-.44677-2.98383.59038-4.48373,3.57421-4.48373,8.52069-.1436,17.02545,0,25.38656,0,3.57421,0,5.21771,2.39346,6.11126,5.52089,1.59564,5.68046,3.287,11.48859,5.07411,17.16905,6.12724,20.74326,12.0949,41.64609,18.22218,62.38935-.15957.15957,0,.15957.2872.15957Z" transform="translate(-11.55172 -181.89655)"/><path class="a" d="M210.78212,286.57414a4.404,4.404,0,0,0,2.53705-1.7871,104.39265,104.39265,0,0,1,8.50474-7.61116,39.89091,39.89091,0,0,1,27.1258-8.21752c3.87738.15958,5.21773,1.3563,5.52091,5.09008.30317,5.07411.1436,10.29187.1436,15.366a28.17844,28.17844,0,0,1-.2872,6.12723c-.60635,2.68066-1.59564,3.73378-4.34013,4.021a41.15222,41.15222,0,0,1-6.11129-.1436,71.35689,71.35689,0,0,0-29.10438,4.18055c-2.09028.75-2.09028,2.23388-2.09028,3.87738v71.66a31.51494,31.51494,0,0,1-.15956,3.87738,3.59019,3.59019,0,0,1-3.57422,3.43061,25.31027,25.31027,0,0,1-3.287.1436h-19.371a25.05415,25.05415,0,0,1-3.287-.1436,4.00505,4.00505,0,0,1-3.59018-3.73378,29.88564,29.88564,0,0,1-.1436-3.57421V277.6226c0-6.86121.75-7.61116,7.61118-7.61116h14.36071c3.8774,0,5.68046,1.34033,6.71763,5.07411S209.8726,282.55311,210.78212,286.57414ZM909.096,437.95205a126.646,126.646,0,0,1,29.10437,3.43061,48.18761,48.18761,0,0,1,7.77074,2.84023,10.05253,10.05253,0,0,1,6.11131,8.20159,60.37924,60.37924,0,0,1,.44682,12.84484A164.5091,164.5091,0,0,1,929.552,537.36011a99.901,99.901,0,0,1-17.32858,21.34961,12.25391,12.25391,0,0,1-4.7869,2.98383c-2.84028.75-4.62739-.75-4.78691-3.57421a16.16313,16.16313,0,0,1,1.0372-4.48373c5.21776-14.02565,10.30784-27.90764,14.36072-42.396a146.96244,146.96244,0,0,0,5.07411-24.17387,45.55864,45.55864,0,0,0,.15952-8.96746,11.69593,11.69593,0,0,0-8.36111-10.89817,58.60677,58.60677,0,0,0-14.36072-2.68065,235.17978,235.17978,0,0,0-41.05566,1.7871L841.457,468.60419c-1.94668.15958-3.73378,0-4.78691-1.7871a5.01029,5.01029,0,0,1,.44678-5.37728,14.91917,14.91917,0,0,1,4.46776-4.18056,102.6949,102.6949,0,0,1,36.572-15.81275A176.925,176.925,0,0,1,909.08,437.95205Z" transform="translate(-11.55172 -181.89655)"/><path class="a" d="M846.53107,328.37976v53.741c-.30318,2.98383-1.59564,4.32416-4.62734,4.46776-7.97817.15957-15.95635.15957-24.03026,0-2.98383,0-4.34013-1.48393-4.62733-4.32416a16.95853,16.95853,0,0,1-.15958-2.84023V276.13867c.15958-4.62733,1.3563-5.98363,5.98364-5.98363h21.49321c4.62733,0,5.96766,1.3563,5.96766,5.98363Z" transform="translate(-11.55172 -181.89655)"/><path class="a" d="M268.99088,328.07658v-52.991c.1436-3.57421,1.48393-4.93051,5.07411-5.07411q11.63215-.22344,23.28031,0c3.43061,0,4.48374,1.03715,4.78691,4.48373a31.51306,31.51306,0,0,1,.15957,3.87738v99.40806c0,1.59564-.15957,3.287-.30317,4.93051a3.70186,3.70186,0,0,1-3.59018,3.4306,13.46459,13.46459,0,0,1-2.53705.15958H275.11812a9.23958,9.23958,0,0,1-2.09028-.15958,4.29225,4.29225,0,0,1-4.021-3.87738,26.91782,26.91782,0,0,1-.15957-3.5742c.15957-16.57868.15957-33.50835.15957-50.61356Zm17.31266-111.503a18.33385,18.33385,0,0,1,7.00483,1.03716c8.07391,2.69662,12.25447,9.70144,11.50455,18.81255a16.69036,16.69036,0,0,1-14.249,15.17451,27.73235,27.73235,0,0,1-10.00464,0c-8.50474-1.59564-14.77557-7.97818-14.1852-18.653C267.34738,222.39769,274.35222,216.57358,286.30354,216.57358Z" transform="translate(-11.55172 -181.89655)"/><path class="a" d="M829.96836,216.57358a17.9829,17.9829,0,0,1,8.80789,1.48393,15.733,15.733,0,0,1,10.14822,13.882c1.19673,13.59479-7.97818,20.45605-20.00928,20.15288a27.36155,27.36155,0,0,1-4.93051-.59038c-9.25466-2.23388-14.02564-9.39831-13.13209-19.7061.75-8.21752,7.16438-14.36072,15.95635-15.07878A10.96316,10.96316,0,0,1,829.96836,216.57358Z" transform="translate(-11.55172 -181.89655)"/><path class="a" d="M157.16877,315.83809a67.92658,67.92658,0,0,0-5.80811-22.3389c-6.12723-12.84484-15.52553-22.24316-29.85433-25.53016-16.43505-3.59018-31.21063,0-44.67779,10.00461a11.71154,11.71154,0,0,1-3.19127,2.23388c-.30317-.1436-.60634-.30317-.60634-.44677-.44678-1.4999-.734-2.98383-1.18077-4.48373-1.19673-3.71781-2.69663-5.07411-6.71763-5.07411-4.48373,0-9.11107.15957-13.59481,0-3.43061-.1436-6.55806.30317-8.95151,2.98383,0,52.257,0,104.64174.1436,156.73927,2.10624,3.09554,5.02625,3.68591,8.48878,3.57421,5.37729-.1436,10.75458,0,16.13187,0,9.39829,0,9.39829,0,9.39829-9.25467V381.674c0-1.05313-.44678-2.24986.59039-3.19127a50.167,50.167,0,0,0,25.945,10.33973c13.13208,1.34033,25.08339-1.94668,35.104-10.89817a55.3366,55.3366,0,0,0,15.52554-24.93979C157.91872,340.7619,158.22189,328.37976,157.16877,315.83809Zm-35.66245,30.90744a23.04094,23.04094,0,0,1-6.87719,11.93537,21.20582,21.20582,0,0,1-13.73842,5.21771,40.8484,40.8484,0,0,1-21.78042-4.7869,4.22846,4.22846,0,0,1-2.53706-4.18056V327.933c0-8.96746.14361-17.919,0-26.87049a4.51564,4.51564,0,0,1,2.98384-4.62733c8.20156-3.87739,16.7063-5.68046,25.67377-3.87739a18.23812,18.23812,0,0,1,14.1852,10.73865,41.96536,41.96536,0,0,1,3.87739,15.22237C124.187,328.07658,124.187,337.63447,121.50632,346.74553Z" transform="translate(-11.55172 -181.89655)"/><path class="a" d="M1237.19038,319.12509v.59038a2.13814,2.13814,0,0,1-.60635-2.23388v-1.19673a.14358.14358,0,0,1,.14278-.14447.13832.13832,0,0,1,.01675.00087h-.15953v-1.4999h.30318c0-.1436-.14365-.1436-.14365-.30317a51.83153,51.83153,0,0,0-1.59564-8.34519c-5.52093-19.70611-17.919-32.69455-38.07183-37.76871a73.399,73.399,0,0,0-28.514-1.05313c-20.15288,2.98383-34.6253,13.7384-41.646,32.83816a79.78183,79.78183,0,0,0,.15952,56.43761c5.96767,16.5627,17.903,27.01409,35.104,31.3383a73.79906,73.79906,0,0,0,28.06727,1.4999c31.3383-3.73378,44.32679-27.47684,46.41707-48.0765h-.14365v-2.09028c-.14365-.89355-.30317-1.59563.59038-2.23388v.30318a1.21322,1.21322,0,0,1,.30317-.60635v-17.153c0-.15958-.14365-.15958-.14365-.30318Zm-35.83791,28.35442a27.34774,27.34774,0,0,1-4.16458,8.66429,19.35519,19.35519,0,0,1-14.18522,8.05794,26.71059,26.71059,0,0,1-8.50476-.30317,19.14777,19.14777,0,0,1-14.04158-11.16945,42.77884,42.77884,0,0,1-4.021-14.7756c-.7499-8.80789-.90952-17.552,1.18076-26.28011a33.63657,33.63657,0,0,1,4.037-9.8451,19.43487,19.43487,0,0,1,15.22233-9.25466,27.12608,27.12608,0,0,1,8.50476.2872,19.22736,19.22736,0,0,1,13.59484,10.611,44.08821,44.08821,0,0,1,4.29227,16.85,71.414,71.414,0,0,1,.14365,8.05794,54.25187,54.25187,0,0,1-2.09028,19.14762ZM975.50629,217.61078H954.763c-5.68045,0-6.71766,1.05313-6.71766,6.71761V272.6921c0,1.05312.44683,2.09027-.30317,3.19127-1.34038-.15958-2.09028-1.05313-3.19127-1.59564-15.5255-9.11106-31.785-10.75456-48.20418-3.19127-11.50456,5.37728-18.66895,15.07877-23.29623,26.58329-4.46776,11.04182-5.52094,22.68994-5.21776,34.48166a70.98934,70.98934,0,0,0,7.46756,31.78507c5.66449,10.89817,13.882,19.25933,25.81737,22.84951,16.2755,5.07411,31.49782,2.537,45.37987-7.77074,1.05307-.59037,1.59563-1.59563,2.98383-1.9307a21.34937,21.34937,0,0,1,1.59563,5.21771,5.28159,5.28159,0,0,0,5.21776,4.037H959.885c5.37728,0,10.595.14361,15.82868,0,4.18055,0,5.36131-1.34032,5.52093-5.68045V223.33911c-.15953-4.62733-1.34038-5.68046-5.82411-5.68046ZM948.189,327.48621V354.612a3.89335,3.89335,0,0,1-2.39345,4.18055,36.69977,36.69977,0,0,1-23.36012,4.4997,20.488,20.488,0,0,1-15.95635-11.04181,41.66233,41.66233,0,0,1-4.16459-15.07878,76.87812,76.87812,0,0,1,1.7871-28.06721,34.339,34.339,0,0,1,2.98383-7.308,19.25934,19.25934,0,0,1,15.66915-10.00462,45.17261,45.17261,0,0,1,22.99307,4.021,4.11674,4.11674,0,0,1,2.68065,4.34013c-.2872,9.25466-.14365,18.2062-.14365,27.31726Z" transform="translate(-11.55172 -181.89655)"/><path class="a" d="M562.157,337.7621a99.08984,99.08984,0,0,0,33.89127.44678,54.36329,54.36329,0,0,0,18.653-5.96766c6.71761-3.87739,11.64812-9.25467,13.7384-16.72228,5.21771-18.79658-2.84023-37.76871-22.33889-44.77352A66.74556,66.74556,0,0,0,576.39,267.90519c-23.58349,2.68066-38.96544,15.66915-45.97025,38.21548-4.93051,15.38195-4.34013,31.051-.30318,46.5766,5.21771,19.84971,18.36578,31.64143,38.21549,35.822a95.99355,95.99355,0,0,0,51.74649-4.48378c3.4306-1.34032,5.23368-3.4306,5.0741-7.308-.1436-3.59018,0-7.308,0-11.04182,0-4.48373-1.7871-5.82406-6.11126-4.78691s-8.52068,1.94668-12.84484,2.84023a73.83025,73.83025,0,0,1-28.06722.30318c-12.76508-2.53706-20.88686-13.43528-20.15288-26.8705A41.80706,41.80706,0,0,1,562.157,337.7621Zm-3.73378-22.83354a40.62633,40.62633,0,0,1,2.84022-10.30779c4.48374-10.89816,13.88205-14.616,23.43989-14.02564a24.46136,24.46136,0,0,1,7.97818,1.7871,11.40879,11.40879,0,0,1,6.86121,9.41424,17.05754,17.05754,0,0,1-.44678,7.75476c-1.7871,5.37728-6.12723,7.61116-11.34494,8.66429a30.31687,30.31687,0,0,1-9.70144.734,116.92644,116.92644,0,0,1-17.552-1.34033c-2.23388-.2872-2.23388-.2872-1.94668-2.68066Z" transform="translate(-11.55172 -181.89655)"/><path class="a" d="M1065.67566,339.35774a61.5118,61.5118,0,0,0,25.06746-6.38255,27.796,27.796,0,0,0,15.07878-19.86567,40.36923,40.36923,0,0,0-.14365-16.4191c-3.19127-13.43528-11.64812-21.79639-24.493-26.12055a66.44114,66.44114,0,0,0-22.22728-3.01572c-25.08334.60635-44.19912,13.29162-51.95388,38.29524-5.23373,16.56271-4.48373,33.50835.59038,50.00721,5.23373,17.00948,17.169,27.31727,34.19445,31.9127a80.89739,80.89739,0,0,0,22.33889,2.23388,94.39749,94.39749,0,0,0,32.13612-5.96766c4.34008-1.59563,5.37728-3.19127,5.37728-7.75476V365.52619c-.14365-4.32415-1.93075-5.82406-6.27083-4.7869-3.287.89355-6.38254,1.59563-9.70149,2.39345a75.79236,75.79236,0,0,1-30.60428,1.03715c-10.14821-1.9307-17.00942-7.75476-19.70605-17.919a63.42728,63.42728,0,0,1-1.59564-9.09514,4.65941,4.65941,0,0,1,2.09028.30318A117.9337,117.9337,0,0,0,1065.67566,339.35774ZM1034.465,315.42321c1.05307-5.82406,2.39345-11.4886,5.96766-16.2755,5.5368-7.308,13.148-9.39832,21.79633-8.50472.7499,0,1.35625.30318,2.09028.30318,10.45139,1.59563,12.98849,9.98869,11.05774,18.0626-1.4999,5.96766-6.38254,8.20159-11.95129,9.25467a37.92833,37.92833,0,0,1-9.25467.734,144.35981,144.35981,0,0,1-18.0626-1.48393c-1.34038-.1436-1.93075-.75-1.59564-2.09027Z" transform="translate(-11.55172 -181.89655)"/><rect class="b" width="1256.89655" height="436.2069"/></svg>